# xmcd
#
# Track frame offsets: 
#        150
#        19901
#        40654
#        59626
#        79349
#        102085
#        118367
#        135078
#        159236
#        184318
#        200857
#        215694
#        231150
#        249883
#        268639
#
# Disc length: 3830 seconds
#
# Revision: 1
# Processed by: cddbd v1.5.2PL0 Copyright (c) Steve Scherf et al.
# Submitted via: ExactAudioCopy v0.90b4
#
DISCID=d50ef40f
DTITLE=L.A. Blues Alliance - What A Life
DYEAR=2007
DGENRE=Blues
TTITLE0=What A Life
TTITLE1=T.V. Mama
TTITLE2=Illinois Blues
TTITLE3=Baby Doll
TTITLE4=Maybe Your Baby
TTITLE5=I Need A New Word
TTITLE6=I Walk The Line
TTITLE7=Step By Step
TTITLE8=Death Letter
TTITLE9=It Don't Matter
TTITLE10=Money Honey
TTITLE11=Storm of Worry
TTITLE12=Like I Do
TTITLE13=Shop Around
TTITLE14=Who's Been Talking
EXTD=
EXTT0=
EXTT1=
EXTT2=
EXTT3=
EXTT4=
EXTT5=
EXTT6=
EXTT7=
EXTT8=
EXTT9=
EXTT10=
EXTT11=
EXTT12=
EXTT13=
EXTT14=
PLAYORDER=
